<svg xmlns="http://www.w3.org/2000/svg" version="1.1" xmlns:xlink="http://www.w3.org/1999/xlink" xmlns:svgjs="http://svgjs.com/svgjs" width="25" height="25" x="0" y="0" viewBox="0 0 512 512.00009" style="enable-background:new 0 0 512 512" xml:space="preserve" class=""><g><path xmlns="http://www.w3.org/2000/svg" d="m511.96875 255.589844c-.511719 2.660156 5.320312 96.648437-69.917969 176.230468-101.09375 106.921876-271.109375 106.867188-372.121093-.011718-93.144532-98.546875-93.335938-252.84375 0-351.59375 64.261718-67.996094 157.917968-93.820313 244.773437-73.417969 32.265625 7.574219 48.59375 43.691406 33.25 73.0625-10.796875 20.671875-34.246094 31.230469-56.898437 25.953125-52.3125-12.191406-108.578126 3.484375-147.144532 44.296875-56.207031 59.425781-56.148437 152.4375 0 211.800781 60.855469 64.425782 163.339844 64.394532 224.160156 0 15.742188-16.640625 27.8125-36.789062 34.917969-59.164062h-85.140625c-24.300781 0-44.007812-19.710938-44.007812-44.011719s19.695312-44.011719 44.007812-44.011719h152.890625c22.621094 0 41.199219 18.238282 41.230469 40.867188zm0 0" fill="#ffda44" data-original="#ffda44"></path><path xmlns="http://www.w3.org/2000/svg" d="m511.96875 255.589844v.421875c0 65.578125-24.835938 128.125-69.917969 175.808593-48.082031 50.851563-116.183593 81.550782-191.285156 80.113282v-101.804688c46.273437 1.476563 88.042969-17.234375 117.304687-48.21875 15.746094-16.640625 27.8125-36.789062 34.921876-59.164062h-85.140626c-24.304687 0-44.011718-19.710938-44.011718-44.011719s19.695312-44.011719 44.011718-44.011719h152.886719c22.621094 0 41.199219 18.238282 41.230469 40.867188zm0 0" fill="#0fa9dd" data-original="#0fa9dd"></path><path xmlns="http://www.w3.org/2000/svg" d="m347.957031 79.859375c-10.785156 20.660156-34.199219 31.226563-56.898437 25.949219-52.144532-12.125-108.429688 3.324218-147.148438 44.300781l-73.980468-69.894531c64.402343-68.144532 158.09375-93.769532 244.777343-73.414063 32.253907 7.574219 48.585938 43.6875 33.25 73.058594zm0 0" fill="#ff6426" data-original="#ff6426" class=""></path><path xmlns="http://www.w3.org/2000/svg" d="m442.050781 431.820312c-101.117187 106.945313-271.105469 106.871094-372.121093-.011718l73.984374-69.898438c60.875 64.429688 163.324219 64.40625 224.15625 0zm0 0" fill="#6fbf6b" data-original="#6fbf6b"></path></g></svg>